<?xml version="1.0" encoding="utf-8"?>
<!-- Generator: Adobe Illustrator 18.1.1, SVG Export Plug-In . SVG Version: 6.00 Build 0)  -->
<!DOCTYPE svg PUBLIC "-//W3C//DTD SVG 1.1//EN" "http://www.w3.org/Graphics/SVG/1.1/DTD/svg11.dtd">
<svg version="1.1" id="Layer_1" xmlns="http://www.w3.org/2000/svg" xmlns:xlink="http://www.w3.org/1999/xlink" x="0px" y="0px"
	 viewBox="0 0 404.3 70" enable-background="new 0 0 404.3 70" xml:space="preserve">
<g>
	<g>
		<g>
			<path fill="#2CB134" d="M95.1,53.2c-1.6,0-3.3-0.1-5.3-0.4c-2-0.3-3.9-0.6-5.6-1.1l0.1-2.9c1.8,0.5,3.6,0.8,5.6,1.1
				c1.9,0.3,3.7,0.4,5.1,0.4c2.9,0,5.2-0.6,6.8-1.7c1.6-1.1,2.4-2.8,2.4-4.9c0-1.2-0.2-2.2-0.7-3c-0.5-0.8-1.1-1.5-1.9-2.1
				c-0.8-0.6-1.7-1.1-2.8-1.5c-1.1-0.4-2.2-0.8-3.4-1.1c-1.9-0.6-3.5-1.1-4.8-1.8c-1.3-0.6-2.4-1.4-3.3-2.2
				c-0.8-0.8-1.5-1.7-1.8-2.8c-0.4-1-0.6-2.2-0.6-3.6c0-1.5,0.3-2.8,0.8-4c0.6-1.2,1.4-2.2,2.4-3.1c1-0.9,2.3-1.5,3.7-2
				c1.5-0.5,3.1-0.7,4.9-0.7c2.6,0,5.6,0.4,9.1,1.2l-0.1,2.9c-1.5-0.4-3.1-0.7-4.6-0.9c-1.5-0.2-2.9-0.3-4.2-0.3
				c-2.7,0-4.8,0.6-6.3,1.8c-1.6,1.2-2.4,2.9-2.4,5c0,0.9,0.1,1.8,0.4,2.5s0.8,1.4,1.4,2c0.7,0.6,1.5,1.1,2.6,1.6
				c1.1,0.5,2.4,1,4.1,1.4c1.5,0.5,2.9,0.9,4.2,1.5c1.3,0.5,2.4,1.2,3.4,1.9c1,0.8,1.7,1.7,2.3,2.8c0.6,1.1,0.8,2.5,0.8,4.2
				c0,3.1-1.1,5.5-3.2,7.2C102.2,52.4,99.1,53.2,95.1,53.2z"/>
			<path fill="#2CB134" d="M124.8,53.1c-3.9,0-6.8-1.1-8.8-3.3c-2-2.2-3-5.5-3-9.8c0-4.5,1-8,2.9-10.4c2-2.4,4.8-3.6,8.5-3.6
				c3.1,0,5.5,1,7.1,2.9c1.6,2,2.4,4.8,2.4,8.7c0,0.7,0,1.4,0,1.9c0,0.5-0.1,1-0.2,1.3h-17.6c0.2,3.3,1,5.7,2.4,7.2
				c1.4,1.5,3.6,2.3,6.6,2.3c1.2,0,2.4-0.1,3.7-0.3c1.3-0.2,2.6-0.6,4-1.1l0.2,2.6c-1.2,0.5-2.6,0.9-4.1,1.1
				C127.6,53,126.2,53.1,124.8,53.1z M124.4,28.6c-5.1,0-7.8,3.3-8.1,9.8H131c0-3.5-0.5-6-1.6-7.5S126.6,28.6,124.4,28.6z"/>
			<path fill="#2CB134" d="M141.3,13.4h3.3v39.2h-3.3V13.4z"/>
			<path fill="#2CB134" d="M163.8,53.1c-3.9,0-6.8-1.1-8.8-3.3c-2-2.2-3-5.5-3-9.8c0-4.5,1-8,2.9-10.4c2-2.4,4.8-3.6,8.5-3.6
				c3.1,0,5.5,1,7.1,2.9s2.4,4.8,2.4,8.7c0,0.7,0,1.4,0,1.9c0,0.5-0.1,1-0.2,1.3h-17.6c0.2,3.3,1,5.7,2.4,7.2
				c1.4,1.5,3.6,2.3,6.6,2.3c1.2,0,2.4-0.1,3.7-0.3s2.6-0.6,4-1.1l0.2,2.6c-1.2,0.5-2.6,0.9-4.1,1.1C166.6,53,165.2,53.1,163.8,53.1
				z M163.4,28.6c-5.1,0-7.8,3.3-8.1,9.8H170c0-3.5-0.5-6-1.6-7.5C167.3,29.4,165.6,28.6,163.4,28.6z"/>
			<path fill="#2CB134" d="M180.2,26.4h2.7l0.2,3.1h0.2c1.3-0.6,2.5-1.1,3.5-1.6c1.1-0.5,2-0.8,2.9-1.1c0.9-0.3,1.7-0.5,2.5-0.6
				c0.8-0.1,1.5-0.2,2.3-0.2c2.2,0,3.9,0.6,5.1,1.7c1.1,1.1,1.7,3,1.7,5.4v19.6h-3.2V34.2c0-1.9-0.4-3.3-1.1-4.2
				c-0.8-0.8-1.9-1.2-3.5-1.2c-1.4,0-2.9,0.3-4.6,0.9s-3.5,1.3-5.5,2.3v20.7h-3.3V26.4z"/>
			<path fill="#2CB134" d="M211.5,20.6c-1.5,0-2.2-0.7-2.2-2.1s0.7-2.1,2.2-2.1s2.2,0.7,2.2,2.1S213,20.6,211.5,20.6z M209.9,26.4
				h3.3v26.2h-3.3V26.4z"/>
			<path fill="#2CB134" d="M228.1,53.2c-4.3,0-6.5-2.4-6.5-7.1V26.4h3.3v18.5c0,1.9,0.3,3.2,1,4.1c0.7,0.8,1.8,1.2,3.3,1.2
				c1.7,0,3.4-0.3,5.1-1c1.7-0.7,3.5-1.4,5.3-2.4V26.4h3.3v26.2h-2.7l-0.2-3.3h-0.2c-1.4,0.6-2.5,1.2-3.6,1.7c-1,0.5-2,0.9-2.8,1.2
				c-0.9,0.3-1.7,0.5-2.5,0.7C230,53.1,229.1,53.2,228.1,53.2z"/>
			<path fill="#2CB134" d="M251.5,26.4h2.7l0.3,3.1h0.2c2.1-1.2,3.9-2.1,5.3-2.7c1.4-0.6,2.8-0.8,4.2-0.8c3.2,0,5.3,1.2,6.2,3.6h0.2
				c1.1-0.7,2.1-1.2,3-1.7c0.9-0.5,1.7-0.8,2.5-1.1c0.8-0.3,1.5-0.5,2.2-0.6c0.7-0.1,1.3-0.2,2-0.2c2.2,0,3.9,0.6,5.1,1.7
				c1.1,1.1,1.7,3,1.7,5.4v19.6h-3.2V34.2c0-1.9-0.4-3.3-1.1-4.1c-0.8-0.8-1.9-1.2-3.5-1.2c-1.1,0-2.3,0.3-3.7,0.8
				c-1.4,0.5-2.9,1.3-4.5,2.2v20.8h-3.2V34.2c0-1.9-0.4-3.3-1.1-4.1c-0.8-0.8-1.9-1.2-3.5-1.2c-1.1,0-2.4,0.3-3.8,0.8
				c-1.4,0.6-2.9,1.3-4.5,2.2v20.7h-3.3V26.4z"/>
			<path fill="#2CB134" d="M313,53.1c-10.6-0.1-15.8-6.2-15.8-18.3c0-12.4,5.3-18.6,15.9-18.6c1.1,0,2.3,0.1,3.7,0.2
				s2.8,0.4,4.1,0.6V20c-1.5-0.3-2.8-0.5-4.1-0.6c-1.3-0.1-2.4-0.2-3.4-0.2c-4.3,0-7.6,1.3-9.7,3.8s-3.2,6.4-3.2,11.8
				c0,10.3,4.1,15.4,12.4,15.4c0.5,0,1.1,0,1.8-0.1c0.7,0,1.4-0.1,2.2-0.2c0.7-0.1,1.5-0.2,2.2-0.3c0.7-0.1,1.3-0.2,1.8-0.4V52
				c-0.6,0.2-1.2,0.3-1.8,0.4c-0.7,0.1-1.4,0.2-2.1,0.3c-0.7,0.1-1.4,0.2-2.1,0.2S313.6,53.1,313,53.1z"/>
			<path fill="#2CB134" d="M335.5,53.2c-3.8,0-6.7-1.2-8.7-3.5s-3-5.7-3-10.1s1-7.8,3-10.1s4.9-3.5,8.7-3.5s6.7,1.2,8.7,3.5
				s3,5.7,3,10.1s-1,7.8-3,10.1S339.3,53.2,335.5,53.2z M335.5,50.4c2.8,0,5-0.9,6.3-2.6c1.4-1.7,2-4.5,2-8.2c0-3.7-0.7-6.5-2-8.2
				c-1.4-1.7-3.5-2.6-6.3-2.6c-2.8,0-5,0.9-6.3,2.6c-1.4,1.7-2,4.5-2,8.2c0,3.7,0.7,6.4,2,8.2C330.5,49.5,332.6,50.4,335.5,50.4z"/>
			<path fill="#2CB134" d="M354.4,26.4h2.7l0.2,3.1h0.2c1.3-0.6,2.5-1.1,3.5-1.6c1.1-0.5,2-0.8,2.9-1.1c0.9-0.3,1.7-0.5,2.5-0.6
				c0.8-0.1,1.5-0.2,2.3-0.2c2.2,0,3.9,0.6,5.1,1.7c1.1,1.1,1.7,3,1.7,5.4v19.6h-3.2V34.2c0-1.9-0.4-3.3-1.1-4.2
				c-0.8-0.8-1.9-1.2-3.5-1.2c-1.4,0-2.9,0.3-4.6,0.9s-3.5,1.3-5.5,2.3v20.7h-3.3V26.4z"/>
			<path fill="#2CB134" d="M386.7,29.4H381v-2.9h5.7v-1.3c0-2.3,0.2-4.2,0.5-5.7c0.3-1.5,0.9-2.7,1.7-3.6c0.8-0.9,2-1.5,3.4-1.9
				s3.3-0.6,5.6-0.7l0.1,2.5c-1.7,0.1-3.1,0.3-4.2,0.6c-1.1,0.3-1.9,0.7-2.5,1.3c-0.6,0.6-1,1.4-1.2,2.4c-0.2,1-0.3,2.3-0.3,4v2.5
				h6.9v2.9h-6.9v23.3h-3.3V29.4z"/>
		</g>
	</g>
	<g>
		<path fill="#2CB134" d="M44.2,44.3c-3.4,0-4.9,2.5-5.3,4.6c0,0.1,0.1,0.2,0.2,0.2h10.2c0.1,0,0.2-0.1,0.2-0.2
			C49.2,46.8,47.8,44.3,44.2,44.3z"/>
		<path fill="#2CB134" d="M66,10.1L44.4,34.4c-0.3,0.3-0.7,0.3-1,0L32.4,23c-0.2-0.2-0.2-0.6-0.1-0.8l3.7-4.7
			c0.2-0.4,0.8-0.4,1.1-0.1l6.1,6.8c0.3,0.3,0.7,0.3,1,0L61.5,0.7c0.2-0.3,0-0.7-0.4-0.7H0.5C0.2,0,0,0.2,0,0.5v69
			C0,69.8,0.2,70,0.5,70h65.8c0.3,0,0.5-0.2,0.5-0.5V10.4C66.8,10,66.3,9.8,66,10.1z M18.6,62.3c-5.3,0-9.1-1.7-11.8-4.2
			c-0.2-0.2-0.3-0.6-0.1-0.8l2.6-3.6c0.2-0.3,0.7-0.4,1-0.1c2,1.9,5,3.4,8.7,3.4c3.4,0,5-1.6,5-3.2c0-5.1-16.6-1.6-16.6-12.5
			c0-4.8,4.2-8.8,11-8.8c4.4,0,8,1.2,10.8,3.6c0.3,0.2,0.3,0.6,0.1,0.9l-2.6,3.5c-0.2,0.3-0.6,0.3-0.9,0.1c-2.3-1.9-5.2-2.7-7.9-2.7
			c-2.6,0-4.1,1.2-4.1,2.9c0,4.6,16.6,1.5,16.6,12.3C30.2,58.3,26.4,62.3,18.6,62.3z M54.9,52.3c0,0.3-0.3,0.6-0.6,0.6H39.2
			c-0.1,0-0.2,0.1-0.2,0.2c0.4,2.6,2.6,4.8,6.1,4.8c1.6,0,3.8-0.6,5.3-1.7c0.3-0.2,0.6-0.1,0.8,0.1l1.8,2.7c0.2,0.2,0.1,0.6-0.1,0.8
			c-2.1,1.7-5.3,2.6-8.4,2.6c-6.5,0-11.5-4.4-11.5-11.3c0-6.2,4.6-11.2,11.1-11.2c6.4,0,10.8,4.8,10.8,11.8V52.3z"/>
	</g>
</g>
</svg>
